<svg width="169" height="51" viewBox="0 0 169 51" fill="none" xmlns="http://www.w3.org/2000/svg">
<g clip-path="url(#clip0_268_1412)">
<path fill-rule="evenodd" clip-rule="evenodd" d="M162.359 50.2039H6.94839C3.5209 50.2039 0.729492 47.409 0.729492 44.005V6.81126C0.729492 3.39488 3.5209 0.612305 6.94839 0.612305H162.359C165.784 0.612305 168.578 3.39488 168.578 6.81126V44.005C168.578 47.409 165.784 50.2039 162.359 50.2039Z" fill="black"/>
<path fill-rule="evenodd" clip-rule="evenodd" d="M162.359 1.60476C165.234 1.60476 167.587 3.94521 167.587 6.81126V44.005C167.587 46.871 165.249 49.2115 162.359 49.2115H6.94839C4.07362 49.2115 1.72069 46.871 1.72069 44.005V6.81126C1.72069 3.94521 4.05818 1.60476 6.94839 1.60476H162.359ZM162.359 0.612305H6.94839C3.5209 0.612305 0.729492 3.40724 0.729492 6.81126V44.005C0.729492 47.4214 3.5209 50.2039 6.94839 50.2039H162.359C165.784 50.2039 168.578 47.4214 168.578 44.005V6.81126C168.578 3.40724 165.784 0.612305 162.359 0.612305Z" fill="#A6A6A6"/>
<path d="M89.1525 17.0169C88.0316 17.0169 87.0868 16.6242 86.3395 15.8513C85.5984 15.1 85.1847 14.0643 85.2032 13.0069C85.2032 11.8784 85.5861 10.9231 86.3395 10.1656C87.0837 9.39265 88.0285 9 89.1494 9C90.2579 9 91.2028 9.39265 91.9624 10.1656C92.7158 10.9478 93.0987 11.9032 93.0987 13.0069C93.0864 14.1385 92.7035 15.0938 91.9624 15.8482C91.2183 16.6273 90.2734 17.0169 89.1525 17.0169ZM55.801 17.0169C54.7048 17.0169 53.7538 16.6304 52.9756 15.8668C52.2037 15.1062 51.8115 14.1447 51.8115 13.01C51.8115 11.8753 52.2037 10.9138 52.9756 10.1532C53.7383 9.38956 54.6894 9.00309 55.801 9.00309C56.3444 9.00309 56.8725 9.1113 57.3789 9.33082C57.876 9.54415 58.2805 9.83477 58.58 10.1903L58.6541 10.28L57.8173 11.1024L57.7309 11.0004C57.2584 10.4377 56.6254 10.1625 55.7886 10.1625C55.0414 10.1625 54.3899 10.4284 53.8526 10.954C53.3122 11.4827 53.0374 12.1752 53.0374 13.0131C53.0374 13.851 53.3122 14.5435 53.8526 15.0722C54.3899 15.5978 55.0414 15.8637 55.7886 15.8637C56.5853 15.8637 57.2553 15.5978 57.7772 15.0722C58.086 14.763 58.2774 14.3302 58.3453 13.7829H55.662V12.6266H59.4971L59.5125 12.7317C59.5403 12.9265 59.5681 13.1275 59.5681 13.313C59.5681 14.3796 59.247 15.2422 58.6109 15.8791C57.8883 16.6335 56.9435 17.0169 55.801 17.0169ZM100.145 16.853H98.9625L95.3405 11.0498L95.3714 12.0948V16.8499H94.1887V9.16696H95.5381L95.5752 9.2257L98.981 14.6919L98.9501 13.65V9.16696H100.145V16.853ZM80.2658 16.853H79.0677V10.3233H76.9896V9.16696H82.3408V10.3233H80.2627V16.853H80.2658ZM76.0138 16.853H74.8188V9.16696H76.0138V16.853ZM69.2978 16.853H68.1028V10.3233H66.0247V9.16696H71.3759V10.3233H69.2978V16.853ZM65.2682 16.8407H60.6859V9.16696H65.2682V10.3233H61.884V12.4318H64.9378V13.5758H61.884V15.6844H65.2682V16.8407ZM87.2164 15.0567C87.7506 15.5916 88.3991 15.8606 89.1525 15.8606C89.9275 15.8606 90.5605 15.5978 91.0886 15.0567C91.6135 14.5311 91.879 13.8417 91.879 13.01C91.879 12.1783 91.6135 11.4858 91.0916 10.9633C90.5575 10.4284 89.9059 10.1594 89.1556 10.1594C88.3805 10.1594 87.7475 10.4222 87.2226 10.9633C86.6977 11.4889 86.4321 12.1783 86.4321 13.01C86.4321 13.8417 86.6946 14.5342 87.2164 15.0567Z" fill="white"/>
<path fill-rule="evenodd" clip-rule="evenodd" d="M85.0921 27.5843C82.1741 27.5843 79.8088 29.8011 79.8088 32.8588C79.8088 35.8887 82.1895 38.1333 85.0921 38.1333C88.0101 38.1333 90.3754 35.9011 90.3754 32.8588C90.3754 29.8011 88.0101 27.5843 85.0921 27.5843ZM85.0921 36.0433C83.4957 36.0433 82.1216 34.72 82.1216 32.8464C82.1216 30.945 83.4988 29.6496 85.0921 29.6496C86.6885 29.6496 88.0626 30.945 88.0626 32.8464C88.0657 34.7324 86.6885 36.0433 85.0921 36.0433ZM73.5652 27.5843C70.6472 27.5843 68.2819 29.8011 68.2819 32.8588C68.2819 35.8887 70.6626 38.1333 73.5652 38.1333C76.4832 38.1333 78.8485 35.9011 78.8485 32.8588C78.8485 29.8011 76.4801 27.5843 73.5652 27.5843ZM73.5652 36.0433C71.9688 36.0433 70.5947 34.72 70.5947 32.8464C70.5947 30.945 71.9718 29.6496 73.5652 29.6496C75.1616 29.6496 76.5357 30.945 76.5357 32.8464C76.5357 34.7324 75.1616 36.0433 73.5652 36.0433ZM59.849 29.1951V31.4273H65.2002C65.0366 32.6795 64.6228 33.6039 63.9898 34.2377C63.2055 35.023 61.995 35.8763 59.8613 35.8763C56.5728 35.8763 54.0006 33.2174 54.0006 29.9247C54.0006 26.632 56.5728 23.9731 59.8613 23.9731C61.6368 23.9731 62.9306 24.675 63.891 25.5716L65.4719 23.9886C64.138 22.7086 62.3625 21.7285 59.8737 21.7285C55.3624 21.7285 51.5767 25.4077 51.5767 29.9124C51.5767 34.4294 55.3593 38.0962 59.8737 38.0962C62.31 38.0962 64.138 37.2986 65.5831 35.796C67.056 34.3212 67.5223 32.2405 67.5223 30.5616C67.5223 30.0391 67.4821 29.5692 67.3988 29.1704H59.8459C59.849 29.1673 59.849 29.1951 59.849 29.1951ZM115.952 30.9326C115.51 29.7485 114.176 27.5719 111.441 27.5719C108.729 27.5719 106.475 29.7083 106.475 32.8464C106.475 35.8083 108.705 38.121 111.703 38.121C114.112 38.121 115.513 36.6462 116.091 35.7805L114.303 34.5809C113.71 35.4621 112.886 36.0402 111.715 36.0402C110.533 36.0402 109.705 35.5022 109.156 34.4418L116.199 31.5201C116.199 31.5232 115.952 30.9326 115.952 30.9326ZM108.77 32.6949C108.714 30.6575 110.351 29.6217 111.521 29.6217C112.444 29.6217 113.213 30.0762 113.476 30.7379L108.77 32.6949ZM103.048 37.8056H105.361V22.3098H103.048V37.8056ZM99.2498 28.7561H99.1665C98.6446 28.1346 97.6534 27.5719 96.3874 27.5719C93.7596 27.5719 91.3388 29.8876 91.3388 32.8619C91.3388 35.8238 93.7473 38.1117 96.3874 38.1117C97.638 38.1117 98.6446 37.5459 99.1665 36.9121H99.2498V37.6696C99.2498 39.6823 98.1753 40.7675 96.443 40.7675C95.0257 40.7675 94.1456 39.7472 93.7874 38.8939L91.7773 39.7349C92.3547 41.1261 93.8955 42.8482 96.4399 42.8482C99.151 42.8482 101.448 41.2498 101.448 37.3511V27.8873H99.2622V28.7561C99.2653 28.7561 99.2498 28.7561 99.2498 28.7561ZM96.5943 36.0433C94.9979 36.0433 93.6639 34.7077 93.6639 32.8619C93.6639 31.0007 94.9979 29.6527 96.5943 29.6527C98.1753 29.6527 99.4011 31.0161 99.4011 32.8619C99.4166 34.7077 98.1783 36.0433 96.5943 36.0433ZM126.781 22.3098H121.251V37.8056H123.563V31.9375H126.784C129.344 31.9375 131.861 30.0793 131.861 27.1298C131.861 24.1803 129.353 22.3098 126.781 22.3098ZM126.849 29.7732H123.56V24.4554H126.849C128.581 24.4554 129.56 25.8869 129.56 27.1143C129.56 28.3294 128.569 29.7732 126.849 29.7732ZM141.13 27.5565C139.45 27.5565 137.718 28.3016 137.002 29.9247L139.052 30.7781C139.494 29.9247 140.303 29.6341 141.158 29.6341C142.356 29.6341 143.567 30.3514 143.594 31.6314V31.7952C143.181 31.5603 142.273 31.2016 141.186 31.2016C138.972 31.2016 136.727 32.4136 136.727 34.686C136.727 36.7668 138.543 38.1024 140.565 38.1024C142.118 38.1024 142.974 37.4006 143.508 36.5875H143.591V37.7871H145.821V31.8509C145.821 29.0869 143.77 27.5565 141.13 27.5565ZM140.84 36.0433C140.083 36.0433 139.024 35.6723 139.024 34.72C139.024 33.5204 140.346 33.066 141.473 33.066C142.492 33.066 142.974 33.2855 143.579 33.5885C143.412 34.9797 142.239 36.0309 140.84 36.0433ZM153.954 27.8873L151.298 34.6087H151.215L148.464 27.8873H145.975L150.103 37.2831L147.751 42.5051H150.159L156.511 27.8873H153.954ZM133.136 37.8056H135.449V22.3098H133.136V37.8056Z" fill="white"/>
<path fill-rule="evenodd" clip-rule="evenodd" d="M13.6488 9.95164C13.2906 10.3381 13.0837 10.9286 13.0837 11.7016V39.1161C13.0837 39.889 13.2906 40.4796 13.6612 40.8506L13.7569 40.934L29.0973 25.5742V25.2311L13.7445 9.86816L13.6488 9.95164Z" fill="url(#paint0_linear_268_1412)"/>
<path fill-rule="evenodd" clip-rule="evenodd" d="M34.2015 30.7111L29.085 25.5881V25.2295L34.2015 20.1064L34.3127 20.1745L40.3649 23.6187C42.0972 24.5957 42.0972 26.2096 40.3649 27.1989L34.3127 30.6431L34.2015 30.7111Z" fill="url(#paint1_linear_268_1412)"/>
<path fill-rule="evenodd" clip-rule="evenodd" d="M34.3127 30.6425L29.085 25.4082L13.6489 40.8638C14.214 41.4698 15.162 41.5378 16.2211 40.9473L34.3127 30.6425Z" fill="url(#paint2_linear_268_1412)"/>
<path fill-rule="evenodd" clip-rule="evenodd" d="M34.3127 20.174L16.2211 9.88462C15.162 9.27864 14.2109 9.36212 13.6489 9.9681L29.085 25.4083L34.3127 20.174Z" fill="url(#paint3_linear_268_1412)"/>
<path opacity="0.2" fill-rule="evenodd" clip-rule="evenodd" d="M34.2018 30.5303L16.2336 40.7516C15.23 41.3297 14.3345 41.2895 13.7571 40.7639L13.6614 40.8598L13.7571 40.9432C14.3345 41.4657 15.23 41.509 16.2336 40.9309L34.3253 30.6416L34.2018 30.5303Z" fill="black"/>
<path opacity="0.12" fill-rule="evenodd" clip-rule="evenodd" d="M40.365 27.019L34.1863 30.5312L34.2974 30.6425L40.3496 27.1983C41.2173 26.7036 41.6434 26.0544 41.6434 25.4082C41.5909 26.0018 41.1493 26.5645 40.365 27.019Z" fill="black"/>
<path opacity="0.25" fill-rule="evenodd" clip-rule="evenodd" d="M16.221 10.0635L40.3648 23.797C41.1491 24.2391 41.5906 24.8173 41.6586 25.4078C41.6586 24.7617 41.2325 24.1124 40.3648 23.6177L16.221 9.88417C14.4887 8.89171 13.0837 9.7203 13.0837 11.7021V11.8814C13.0837 9.89653 14.4887 9.0834 16.221 10.0635Z" fill="white"/>
</g>
<defs>
<linearGradient id="paint0_linear_268_1412" x1="27.7213" y1="11.4058" x2="3.14451" y2="17.946" gradientUnits="userSpaceOnUse">
<stop stop-color="#00A0FF"/>
<stop offset="0.00657" stop-color="#00A1FF"/>
<stop offset="0.2601" stop-color="#00BEFF"/>
<stop offset="0.5122" stop-color="#00D2FF"/>
<stop offset="0.7604" stop-color="#00DFFF"/>
<stop offset="1" stop-color="#00E3FF"/>
</linearGradient>
<linearGradient id="paint1_linear_268_1412" x1="42.624" y1="25.4088" x2="12.6627" y2="25.4088" gradientUnits="userSpaceOnUse">
<stop stop-color="#FFE000"/>
<stop offset="0.4087" stop-color="#FFBD00"/>
<stop offset="0.7754" stop-color="#FFA500"/>
<stop offset="1" stop-color="#FF9C00"/>
</linearGradient>
<linearGradient id="paint2_linear_268_1412" x1="31.4701" y1="28.2564" x2="11.7064" y2="61.4783" gradientUnits="userSpaceOnUse">
<stop stop-color="#FF3A44"/>
<stop offset="1" stop-color="#C31162"/>
</linearGradient>
<linearGradient id="paint3_linear_268_1412" x1="9.76195" y1="0.834138" x2="18.5793" y2="15.6716" gradientUnits="userSpaceOnUse">
<stop stop-color="#32A071"/>
<stop offset="0.0685" stop-color="#2DA771"/>
<stop offset="0.4762" stop-color="#15CF74"/>
<stop offset="0.8009" stop-color="#06E775"/>
<stop offset="1" stop-color="#00F076"/>
</linearGradient>
<clipPath id="clip0_268_1412">
<rect width="167.849" height="49.5916" fill="white" transform="translate(0.729492 0.612305)"/>
</clipPath>
</defs>
</svg>
