<svg width="166" height="50" viewBox="0 0 166 50" fill="none" xmlns="http://www.w3.org/2000/svg">
<g clip-path="url(#clip0_268_1413)">
<path d="M153.646 0.204102H10.3293C9.95567 0.204102 9.58208 0.204102 9.20518 0.204102C8.3832 0.216054 7.56324 0.288988 6.75205 0.422305C5.94611 0.558803 5.16571 0.81745 4.43777 1.18932C3.70557 1.56366 3.03629 2.05 2.45411 2.63079C1.87203 3.21186 1.38553 3.88136 1.01265 4.61445C0.63626 5.35274 0.375349 6.14439 0.239016 6.96179C0.101996 7.77139 0.0290349 8.59054 0.0208132 9.41161C0.000976562 9.79182 0.000976562 10.1621 0.000976562 10.539V39.4641C0.000976562 39.8443 0.000976562 40.2146 0.0208132 40.5948C0.0293218 41.4159 0.10228 42.235 0.239016 43.0447C0.374169 43.8505 0.631714 44.6309 1.00273 45.3589C1.7527 46.8396 2.95151 48.0454 4.42786 48.8039C5.1561 49.1764 5.93627 49.4372 6.74213 49.5775C7.5534 49.7098 8.37336 49.7816 9.19527 49.7924C9.57216 49.7924 9.94575 49.7924 10.3193 49.7924H154.962C155.335 49.7924 155.715 49.7924 156.089 49.7924C156.909 49.7823 157.727 49.7105 158.536 49.5775C159.349 49.4367 160.136 49.176 160.873 48.8039C161.608 48.4335 162.277 47.9467 162.857 47.3624C163.442 46.7824 163.93 46.1127 164.305 45.3788C164.672 44.6499 164.927 43.8696 165.062 43.0645C165.199 42.2547 165.275 41.4358 165.29 40.6147C165.29 40.2345 165.29 39.8642 165.29 39.484C165.29 39.041 165.29 38.5979 165.29 38.1615V11.8747C165.29 11.425 165.29 10.982 165.29 10.5522C165.29 10.1753 165.29 9.79843 165.29 9.42484C165.275 8.60368 165.199 7.78479 165.062 6.97501C164.926 6.17018 164.671 5.39014 164.305 4.66074C163.555 3.17569 162.358 1.96366 160.883 1.19593C160.146 0.827878 159.358 0.572661 158.545 0.438835C157.737 0.304794 156.919 0.231854 156.099 0.220632C155.725 0.220632 155.345 0.220632 154.972 0.220632L153.646 0.204102Z" fill="#B6B6B6"/>
<path d="M10.336 48.7238C9.96239 48.7238 9.59872 48.7238 9.22844 48.7238C8.46199 48.7138 7.69732 48.6475 6.94061 48.5254C6.23625 48.4057 5.55337 48.1829 4.91396 47.8642C3.64362 47.2131 2.60893 46.1807 1.955 44.9118C1.63318 44.2725 1.41023 43.5881 1.29377 42.8819C1.16736 42.1234 1.09993 41.3563 1.0921 40.5874C1.0921 40.3296 1.07227 39.47 1.07227 39.47V10.5382C1.07227 10.5382 1.07227 9.69184 1.0921 9.44388C1.09782 8.67395 1.16415 7.90566 1.29047 7.14614C1.40542 6.43746 1.62842 5.75061 1.95169 5.10957C2.27304 4.47878 2.6939 3.90387 3.19809 3.40693C3.70165 2.90284 4.28052 2.48012 4.91396 2.15391C5.55195 1.83453 6.23383 1.61169 6.9373 1.49269C7.69596 1.36792 8.46295 1.30051 9.23174 1.29102H10.336H154.965H156.082C156.845 1.29754 157.605 1.36386 158.357 1.48938C159.067 1.60593 159.756 1.82884 160.4 2.1506C161.674 2.80739 162.708 3.84846 163.356 5.1261C163.677 5.76227 163.9 6.44331 164.017 7.14614C164.144 7.91135 164.215 8.68485 164.229 9.46041C164.229 9.80755 164.229 10.1811 164.229 10.5514C164.229 11.011 164.229 11.4474 164.229 11.8739V38.1244C164.229 38.5707 164.229 39.0038 164.229 39.4468C164.229 39.8898 164.229 40.2105 164.229 40.5874C164.217 41.3476 164.147 42.1058 164.02 42.8554C163.907 43.5667 163.684 44.256 163.359 44.8986C162.703 46.1627 161.67 47.1919 160.404 47.8444C159.761 48.1665 159.073 48.3894 158.364 48.5056C157.607 48.6284 156.842 48.6947 156.076 48.7039C155.719 48.7039 155.342 48.7039 154.978 48.7039H10.336V48.7238Z" fill="black"/>
<path d="M61.3592 33.6817H55.5437L54.132 37.5631H51.5764L57.2629 23.0625H59.6764L65.4918 37.5631H62.8172L61.3592 33.6817ZM56.2843 31.6981H60.6153L59.0648 27.5456C58.8532 26.9736 58.6416 26.3389 58.4366 25.6446C58.2481 26.2595 58.0432 26.8844 57.825 27.5257L56.2843 31.6981Z" fill="white"/>
<path d="M66.52 29.4066C66.52 28.6065 66.4936 27.7249 66.4407 26.7617H68.755C68.8419 27.2151 68.9015 27.6732 68.9335 28.1337C69.3384 27.6485 69.8435 27.2565 70.4142 26.9849C70.9849 26.7133 71.6076 26.5683 72.2396 26.56C72.9806 26.5483 73.7083 26.7579 74.3296 27.1619C74.9509 27.5659 75.4376 28.146 75.7275 28.828C76.1342 29.7657 76.3274 30.782 76.2929 31.8035C76.318 32.9173 76.092 34.0224 75.6317 35.0369C75.2465 35.8789 74.6177 36.586 73.8265 37.0668C73.0125 37.5373 72.0853 37.7762 71.1453 37.7578C70.4056 37.7574 69.6712 37.6322 68.9732 37.3875V41.8607L66.5002 42.0723L66.52 29.4066ZM73.0198 34.9179C73.5224 34.2567 73.7769 33.2648 73.7769 31.9424C73.7769 30.7368 73.5675 29.8551 73.1488 29.2975C72.9596 29.0383 72.7103 28.829 72.4224 28.6873C72.1345 28.5456 71.8165 28.4759 71.4957 28.4842C71.0337 28.478 70.578 28.5919 70.1733 28.8148C69.7433 29.0584 69.3522 29.3648 69.0128 29.724V35.5097C69.2868 35.6389 69.5754 35.7343 69.8724 35.794C70.1918 35.8631 70.5176 35.8986 70.8444 35.8998C71.2594 35.9246 71.6743 35.8483 72.0533 35.6772C72.4322 35.5062 72.7639 35.2456 73.0198 34.9179V34.9179Z" fill="white"/>
<path d="M77.7969 29.4066C77.7969 28.6065 77.7704 27.7249 77.7175 26.7617H80.0318C80.1215 27.2147 80.1822 27.673 80.2136 28.1337C81.1768 27.0846 82.2788 26.56 83.5197 26.56C84.2608 26.5483 84.9884 26.7579 85.6097 27.1619C86.2311 27.5659 86.7178 28.146 87.0077 28.828C87.4144 29.7657 87.6075 30.782 87.573 31.8035C87.6034 32.916 87.383 34.0211 86.9283 35.0369C86.5423 35.8793 85.9123 36.5865 85.1199 37.0668C84.306 37.5377 83.3787 37.7767 82.4386 37.7578C81.6989 37.7574 80.9646 37.6322 80.2665 37.3875V41.8607L77.7936 42.0723L77.7969 29.4066ZM84.3066 34.9179C84.8091 34.2412 85.0604 33.2494 85.0604 31.9424C85.0604 30.7368 84.8521 29.8551 84.4355 29.2975C84.2463 29.0383 83.9971 28.829 83.7091 28.6873C83.4212 28.5456 83.1032 28.4759 82.7825 28.4842C82.3205 28.4786 81.865 28.5925 81.46 28.8148C81.0301 29.0584 80.639 29.3648 80.2996 29.724V35.5097C80.574 35.6379 80.8625 35.7333 81.1592 35.794C81.4786 35.8631 81.8044 35.8986 82.1312 35.8998C82.5461 35.9241 82.9608 35.8474 83.3397 35.6764C83.7185 35.5054 84.0503 35.2451 84.3066 34.9179V34.9179Z" fill="white"/>
<path d="M92.119 36.879C91.0624 36.2996 90.2043 35.4161 89.6559 34.3432C89.0565 33.1308 88.7614 31.7907 88.7963 30.4387C88.7534 28.9922 89.0957 27.5603 89.7881 26.2895C90.4134 25.1868 91.3525 24.2949 92.4859 23.7273C93.6772 23.1452 94.9887 22.8519 96.3144 22.871C97.1183 22.8675 97.9198 22.9608 98.7014 23.1487C99.4325 23.3208 100.142 23.5737 100.817 23.9025L100.176 25.8035C99.0065 25.2136 97.7198 24.8928 96.4103 24.8646C95.4859 24.8492 94.5738 25.0772 93.7654 25.5258C92.9984 25.9661 92.382 26.6275 91.9966 27.4235C91.5535 28.3677 91.3383 29.4027 91.3685 30.4453C91.352 31.3846 91.5159 32.3184 91.8512 33.196C92.1556 33.9728 92.691 34.6375 93.3852 35.1003C94.176 35.5951 95.098 35.8394 96.0301 35.8012C96.5131 35.8 96.9952 35.7591 97.4716 35.6789C97.9325 35.6056 98.3853 35.4882 98.8238 35.3284V32.3794H95.4714V30.4585H101.227V36.5715C100.392 36.9607 99.5177 37.2588 98.6188 37.4609C97.7274 37.6662 96.8158 37.7704 95.9012 37.7716C94.5847 37.8032 93.2823 37.4958 92.119 36.879V36.879Z" fill="white"/>
<path d="M110.012 37.5632C109.918 37.091 109.861 36.6125 109.84 36.1316C109.427 36.6122 108.922 37.0055 108.355 37.2888C107.716 37.6129 107.006 37.7763 106.289 37.7648C105.702 37.7722 105.121 37.6468 104.59 37.3979C104.084 37.1607 103.661 36.7772 103.376 36.2969C103.061 35.7526 102.904 35.1307 102.923 34.5017C102.905 34.0246 102.998 33.5498 103.195 33.1148C103.391 32.6798 103.687 32.2967 104.057 31.9957C104.811 31.3697 106.069 31.0579 107.83 31.0601C108.486 31.0598 109.141 31.1062 109.79 31.1989V30.9873C109.79 30.0352 109.587 29.3629 109.182 28.9706C108.697 28.5534 108.068 28.3433 107.43 28.3854C106.858 28.3924 106.289 28.4701 105.737 28.6168C105.19 28.7488 104.656 28.9326 104.143 29.1657L103.753 27.3671C104.314 27.1278 104.896 26.943 105.492 26.815C106.242 26.6455 107.008 26.5612 107.777 26.5637C108.591 26.5415 109.401 26.6866 110.157 26.9902C110.822 27.2842 111.363 27.801 111.688 28.4515C112.094 29.3226 112.283 30.2787 112.24 31.2386V35.5365C112.24 35.9773 112.267 36.654 112.319 37.5665L110.012 37.5632ZM108.531 35.5795C109.007 35.3581 109.435 35.0446 109.79 34.6571V32.6734C109.241 32.6086 108.69 32.5721 108.137 32.5643C107.117 32.5643 106.41 32.7296 106.018 33.0602C105.827 33.2219 105.674 33.425 105.573 33.6541C105.472 33.8832 105.424 34.1323 105.433 34.3827C105.415 34.599 105.444 34.8167 105.517 35.0209C105.591 35.2251 105.708 35.4111 105.859 35.5663C106.182 35.8381 106.596 35.9764 107.016 35.9531C107.543 35.9451 108.061 35.8174 108.531 35.5795V35.5795Z" fill="white"/>
<path d="M114.151 34.9707V22.2091L116.611 22.0107V34.531C116.576 34.8785 116.659 35.2278 116.846 35.5228C116.94 35.6244 117.056 35.7031 117.186 35.7529C117.315 35.8028 117.455 35.8225 117.593 35.8104C117.817 35.8007 118.039 35.763 118.254 35.698L118.545 37.4701C118.268 37.5746 117.981 37.65 117.689 37.6949C117.373 37.7497 117.054 37.7784 116.733 37.7809C115.012 37.7699 114.151 36.8331 114.151 34.9707Z" fill="white"/>
<path d="M120.304 34.9707V22.2091L122.767 22.0107V34.531C122.732 34.8785 122.814 35.2278 123.001 35.5228C123.096 35.6244 123.212 35.7031 123.342 35.7529C123.471 35.8028 123.61 35.8225 123.749 35.8104C123.973 35.8007 124.195 35.763 124.41 35.698L124.698 37.4701C124.422 37.5746 124.136 37.65 123.845 37.6949C123.528 37.7498 123.207 37.7786 122.886 37.7809C121.167 37.7699 120.306 36.8331 120.304 34.9707Z" fill="white"/>
<path d="M134.814 32.4782H127.749C127.861 34.7418 128.939 35.8736 130.982 35.8736C131.507 35.8709 132.029 35.8088 132.54 35.6884C133.061 35.5671 133.571 35.4012 134.064 35.1925L134.606 36.8852C133.333 37.4851 131.94 37.7859 130.533 37.7647C129.525 37.7938 128.526 37.5662 127.63 37.1035C126.854 36.684 126.231 36.0287 125.851 35.2322C125.432 34.3094 125.228 33.3031 125.256 32.2898C125.229 31.2279 125.445 30.1739 125.888 29.2085C126.265 28.3892 126.876 27.6992 127.643 27.2248C128.43 26.7616 129.329 26.5258 130.242 26.5437C131.148 26.5117 132.041 26.7625 132.797 27.2612C133.48 27.7348 134.009 28.398 134.318 29.1688C134.659 30.0084 134.827 30.9078 134.814 31.8137V32.4782ZM132.404 30.9078C132.409 30.2059 132.176 29.523 131.743 28.9704C131.549 28.7531 131.309 28.5812 131.041 28.4669C130.773 28.3526 130.483 28.2988 130.192 28.3092C129.899 28.3032 129.608 28.3589 129.338 28.4729C129.068 28.5868 128.825 28.7563 128.625 28.9704C128.159 29.5136 127.874 30.1884 127.809 30.9012L132.404 30.9078Z" fill="white"/>
<path d="M136.685 29.4762C136.685 28.8844 136.656 27.9785 136.603 26.7652H138.917C138.957 27.066 138.993 27.4264 139.033 27.8397C139.072 28.2529 139.092 28.5968 139.106 28.858C139.354 28.4366 139.638 28.0363 139.952 27.6611C140.225 27.3405 140.554 27.0727 140.924 26.871C141.312 26.6612 141.749 26.5553 142.19 26.5635C142.525 26.5553 142.859 26.5966 143.182 26.6858L142.871 28.8282C142.484 28.7161 142.077 28.6876 141.678 28.7446C141.279 28.8016 140.897 28.9428 140.557 29.1588C140.01 29.5655 139.533 30.0592 139.145 30.6201V37.5629H136.685V29.4762Z" fill="white"/>
<path d="M144.557 41.9836C144.256 41.9349 143.958 41.863 143.668 41.7687L144.117 39.9669C144.325 40.0229 144.536 40.0681 144.749 40.1025C144.987 40.1447 145.228 40.1668 145.47 40.1686C146.572 40.1686 147.392 39.4644 147.929 38.056L148.091 37.6559L144.107 26.7656H146.752L148.776 32.8522C149.035 33.6351 149.244 34.4334 149.404 35.2425C149.592 34.4622 149.81 33.682 150.065 32.9018L152.082 26.7656H154.571L150.604 37.7055C150.305 38.5867 149.897 39.4274 149.391 40.2083C149.004 40.7981 148.477 41.2822 147.857 41.6167C147.191 41.9415 146.457 42.1003 145.718 42.0795C145.329 42.081 144.94 42.0489 144.557 41.9836V41.9836Z" fill="white"/>
<path d="M51.5764 9.25684H55.9735L55.8512 10.3214H52.8592V12.3811H55.6793V13.3729H52.8592V15.6542H56.0099L55.9008 16.7353H51.5764V9.25684Z" fill="white"/>
<path d="M59.0118 12.92L56.6975 9.25684H58.1654L59.7391 11.948L61.3922 9.25684H62.8171L60.5029 12.8737L63.0056 16.7353H61.5178L59.7358 13.7928L57.9208 16.7353H56.4958L59.0118 12.92Z" fill="white"/>
<path d="M63.9543 9.25684H65.9711C66.9166 9.25684 67.6418 9.44969 68.1465 9.83541C68.3976 10.0329 68.5972 10.2882 68.7284 10.5795C68.8597 10.8707 68.9186 11.1894 68.9003 11.5083C68.9143 11.9638 68.7997 12.4141 68.5697 12.8076C68.3452 13.1775 68.0178 13.4739 67.6274 13.6606C67.1937 13.8656 66.7185 13.9674 66.2389 13.9581C65.9059 13.9534 65.574 13.9191 65.247 13.8556V16.7353H63.9543V9.25684ZM67.1943 12.596C67.3354 12.4606 67.4454 12.2961 67.5167 12.114C67.5881 11.932 67.6191 11.7366 67.6076 11.5414C67.6244 11.3543 67.5949 11.1659 67.5217 10.9929C67.4485 10.82 67.3338 10.6677 67.1877 10.5495C66.8156 10.3229 66.3826 10.2167 65.9479 10.2454H65.247V12.8902C65.4927 12.9345 65.7414 12.9599 65.9909 12.9663C66.4244 12.9988 66.8541 12.8666 67.1943 12.596Z" fill="white"/>
<path d="M70.1763 9.25684H71.4657V15.631H74.5602L74.4511 16.7353H70.1763V9.25684Z" fill="white"/>
<path d="M76.5244 16.3679C75.9825 16.063 75.5448 15.6023 75.268 15.0455C74.9673 14.4283 74.8188 13.7481 74.8349 13.0618C74.8191 12.3446 74.978 11.6343 75.2978 10.9922C75.591 10.4134 76.0518 9.93637 76.6202 9.62346C77.2565 9.29019 77.9687 9.1284 78.6865 9.154C79.3653 9.13578 80.0369 9.29655 80.6338 9.62016C81.1724 9.92613 81.6067 10.3869 81.8803 10.9426C82.1751 11.5533 82.3212 12.2251 82.3067 12.9031C82.3246 13.6283 82.1646 14.3469 81.8406 14.9959C81.5446 15.5727 81.0844 16.049 80.5181 16.3646C79.893 16.6972 79.1928 16.8634 78.4849 16.8473C77.8004 16.8646 77.1236 16.6991 76.5244 16.3679V16.3679ZM79.8701 15.4521C80.2346 15.2106 80.518 14.865 80.6834 14.4603C80.8689 13.997 80.96 13.5013 80.9512 13.0023C80.9595 12.5125 80.8789 12.0252 80.7132 11.5641C80.5648 11.1648 80.2999 10.8193 79.9528 10.5723C79.5502 10.326 79.0874 10.1956 78.6155 10.1956C78.1435 10.1956 77.6807 10.326 77.2781 10.5723C76.9127 10.8259 76.628 11.1794 76.4582 11.5906C76.2701 12.0348 76.1767 12.5133 76.1838 12.9957C76.1758 13.4926 76.2634 13.9865 76.4417 14.4504C76.6001 14.8748 76.8897 15.2377 77.2684 15.4862C77.6472 15.7347 78.0953 15.856 78.5477 15.8323C79.017 15.8439 79.4786 15.7112 79.8701 15.4521V15.4521Z" fill="white"/>
<path d="M83.7446 9.25581H86.0854C86.7711 9.20726 87.4536 9.38748 88.026 9.76825C88.2457 9.94068 88.4205 10.1635 88.5356 10.4179C88.6507 10.6723 88.7027 10.9508 88.6873 11.2296C88.695 11.5921 88.6133 11.9509 88.4492 12.2743C88.3058 12.5578 88.1054 12.8088 87.8607 13.0115C87.642 13.1882 87.3964 13.3288 87.1334 13.4281L89.4477 16.7342H87.9434L85.9961 13.7587H85.0472V16.7342H83.7446V9.25581ZM85.7713 12.7933C86.0584 12.7996 86.3429 12.7373 86.6011 12.6115C86.8337 12.4998 87.0297 12.3244 87.1665 12.1057C87.3029 11.8722 87.3727 11.6057 87.3681 11.3353C87.3815 11.1793 87.3558 11.0224 87.2935 10.8787C87.2311 10.735 87.1341 10.609 87.0111 10.5121C86.7011 10.3181 86.3378 10.2267 85.973 10.2509H85.0373V12.8066L85.7713 12.7933Z" fill="white"/>
<path d="M90.4561 9.25684H94.8631L94.7375 10.3214H91.762V12.3811H94.5556V13.3729H91.7355V15.6542H94.8862L94.7904 16.7353H90.4561V9.25684Z" fill="white"/>
<path d="M99.657 9.25684H100.946V16.7353H99.657V9.25684Z" fill="white"/>
<path d="M104.362 10.3346H102.047L102.16 9.25684H107.979L107.859 10.3346H105.654V16.7353H104.362V10.3346Z" fill="white"/>
<path d="M113.583 16.3682C113.042 16.0631 112.605 15.6023 112.33 15.0458C112.026 14.4295 111.876 13.7488 111.893 13.0621C111.877 12.3449 112.036 11.6346 112.356 10.9925C112.65 10.4142 113.111 9.93746 113.678 9.62374C114.31 9.28883 115.017 9.12257 115.732 9.14104C116.418 9.12255 117.097 9.28806 117.699 9.62043C118.238 9.92543 118.672 10.3864 118.945 10.9429C119.241 11.5533 119.388 12.2251 119.375 12.9034C119.393 13.629 119.232 14.3479 118.905 14.9962C118.61 15.5737 118.15 16.0502 117.583 16.3649C116.958 16.6983 116.258 16.8646 115.55 16.8476C114.863 16.8661 114.184 16.7006 113.583 16.3682V16.3682ZM116.932 15.4524C117.294 15.2098 117.576 14.8644 117.742 14.4606C117.927 13.9973 118.018 13.5016 118.009 13.0026C118.018 12.5127 117.937 12.0255 117.771 11.5644C117.624 11.1653 117.36 10.8197 117.014 10.5726C116.611 10.326 116.148 10.1955 115.675 10.1955C115.203 10.1955 114.739 10.326 114.336 10.5726C113.971 10.8262 113.686 11.1797 113.516 11.5909C113.33 12.0356 113.236 12.5138 113.242 12.996C113.234 13.4929 113.322 13.9867 113.5 14.4507C113.658 14.8585 113.933 15.2105 114.29 15.4623C114.681 15.7207 115.144 15.8501 115.612 15.8326C116.081 15.8422 116.54 15.7096 116.932 15.4524V15.4524Z" fill="white"/>
<path d="M120.806 9.25684H122.287L125.987 15.0524C125.954 14.5003 125.941 13.9945 125.941 13.5283V9.25684H127.137V16.7353H125.702L121.947 10.8471C121.983 11.5083 122.003 12.1067 122.003 12.6258V16.7353H120.806V9.25684Z" fill="white"/>
<path fill-rule="evenodd" clip-rule="evenodd" d="M33.3927 9.2959H19.669C13.199 9.2959 10.8318 11.6631 10.8318 18.1331V31.8667C10.8318 38.3368 13.199 40.7039 19.669 40.7039H33.3927C39.8627 40.7039 42.2332 38.3368 42.2332 31.8667V18.1331C42.2398 11.6631 39.8726 9.2959 33.3927 9.2959Z" fill="#C8102E"/>
<path d="M17.0507 25H17.8839V29.1095H17.0507V27.4399H15.1696V29.1095H14.3364V25H15.1696V26.6531H17.0507V25ZM21.7454 27.3506C21.7454 28.0119 21.4148 28.3755 20.8131 28.3755C20.2114 28.3755 19.8742 28.0119 19.8742 27.3143V25H19.041V27.3473C19.041 28.5012 19.6824 29.1624 20.7999 29.1624C21.9173 29.1624 22.5786 28.5012 22.5786 27.311V25H21.7454V27.3506ZM31.3728 27.8234L30.4405 25H29.7561L28.8304 27.8267L27.9212 25H27.0352L28.4667 29.1095H29.1577L30.0867 26.4117L31.0191 29.1095H31.7166L33.1482 25H32.282L31.3728 27.8234ZM34.6392 27.3374H36.1567V26.5935H34.6392V25.7538H36.8411V25H33.8193V29.0996H36.9205V28.359H34.6392V27.3374ZM37.9123 29.0996H38.7355V25H37.9123V29.0996ZM24.225 28.2499L23.8514 29.1029H23.0017L24.797 25H25.5309L27.3327 29.1029H26.4732L26.1194 28.2532L24.225 28.2499ZM24.5358 27.5093H25.7888L25.1606 26.0414L24.5358 27.5093Z" fill="white"/>
<path d="M26.536 19.7738C25.15 19.773 23.821 19.222 22.841 18.2419C21.8609 17.2619 21.31 15.9329 21.3091 14.5469H22.0463C22.0463 15.7376 22.5194 16.8796 23.3613 17.7216C24.2033 18.5635 25.3453 19.0366 26.536 19.0366C27.7268 19.0366 28.8688 18.5635 29.7107 17.7216C30.5527 16.8796 31.0257 15.7376 31.0257 14.5469H31.763C31.7621 15.9329 31.2111 17.2619 30.2311 18.2419C29.251 19.222 27.922 19.773 26.536 19.7738V19.7738Z" fill="white"/>
</g>
<defs>
<clipPath id="clip0_268_1413">
<rect width="165.305" height="49.5916" fill="white" transform="translate(0.000976562 0.204102)"/>
</clipPath>
</defs>
</svg>
