<svg width="149" height="51" viewBox="0 0 149 51" fill="none" xmlns="http://www.w3.org/2000/svg">
<g clip-path="url(#clip0_268_1414)">
<path d="M137.019 0.79606H12.2956C11.841 0.79606 11.3918 0.79606 10.9384 0.798539C10.5588 0.801019 10.1823 0.808222 9.79908 0.814285C8.96657 0.824081 8.13603 0.897321 7.31466 1.03337C6.49444 1.17238 5.69992 1.43445 4.95797 1.81072C4.21692 2.19017 3.5398 2.68323 2.95118 3.27201C2.35947 3.85913 1.86623 4.53777 1.49043 5.28182C1.1136 6.02439 0.8523 6.82013 0.715563 7.64154C0.577526 8.46192 0.503247 9.29175 0.493392 10.1236C0.481887 10.5037 0.480672 10.8851 0.474609 11.2653V39.9221C0.480672 40.3071 0.481887 40.68 0.493392 41.0651C0.50325 41.8969 0.577529 42.7267 0.715563 43.547C0.851922 44.3689 1.11324 45.1651 1.49043 45.908C1.86606 46.6496 2.35937 47.3255 2.95118 47.9093C3.53757 48.5007 4.21512 48.9941 4.95797 49.3707C5.69992 49.748 6.49435 50.0116 7.31466 50.1528C8.13617 50.2877 8.96663 50.361 9.79908 50.3719C10.1823 50.3804 10.5588 50.3852 10.9384 50.3852C11.3918 50.3877 11.841 50.3877 12.2956 50.3877H137.019C137.464 50.3877 137.917 50.3877 138.363 50.3852C138.74 50.3852 139.128 50.3804 139.506 50.3719C140.336 50.3616 141.165 50.2883 141.985 50.1528C142.808 50.0106 143.605 49.747 144.351 49.3707C145.093 48.9939 145.77 48.5005 146.356 47.9093C146.946 47.3232 147.441 46.6478 147.821 45.908C148.195 45.1646 148.454 44.3684 148.588 43.547C148.727 42.7266 148.804 41.897 148.819 41.0651C148.823 40.68 148.823 40.3071 148.823 39.9221C148.833 39.4717 148.833 39.0238 148.833 38.566V12.6189C148.833 12.1648 148.833 11.7144 148.823 11.2653C148.823 10.8851 148.823 10.5037 148.819 10.1236C148.804 9.29163 148.727 8.46198 148.588 7.64149C148.454 6.82055 148.195 6.02488 147.821 5.28177C147.056 3.7904 145.842 2.57643 144.351 1.81061C143.605 1.43526 142.808 1.17325 141.985 1.03326C141.165 0.89661 140.337 0.823345 139.506 0.814111C139.128 0.808061 138.74 0.800796 138.363 0.798378C137.917 0.795898 137.464 0.795898 137.019 0.795898V0.79606Z" fill="#A6A6A6"/>
<path d="M10.9444 49.3029C10.5666 49.3029 10.198 49.298 9.82323 49.2896C9.04685 49.2795 8.27228 49.2119 7.50588 49.0874C6.79126 48.9643 6.09898 48.7354 5.45187 48.4081C4.81071 48.0836 4.22591 47.658 3.71989 47.1477C3.20654 46.6435 2.77915 46.0586 2.45467 45.4164C2.1266 44.7699 1.89957 44.077 1.78146 43.3618C1.65392 42.5933 1.58491 41.8162 1.57504 41.0372C1.56718 40.7757 1.55688 39.9051 1.55688 39.9051V11.2653C1.55688 11.2653 1.56784 10.4081 1.5751 10.1562C1.58455 9.37847 1.65316 8.60257 1.78032 7.83524C1.89864 7.11805 2.12586 6.42314 2.4541 5.77458C2.77739 5.13276 3.2024 4.54748 3.71266 4.04142C4.22234 3.53055 4.80901 3.1028 5.45127 2.77377C6.09688 2.44756 6.78785 2.22023 7.50104 2.0994C8.26995 1.97364 9.04721 1.90565 9.82628 1.896L10.945 1.88086H138.356L139.489 1.8966C140.26 1.90578 141.031 1.97316 141.793 2.09818C142.513 2.22053 143.211 2.44945 143.864 2.7774C145.151 3.4405 146.198 4.48958 146.858 5.77761C147.181 6.42169 147.405 7.11093 147.522 7.82192C147.65 8.59556 147.722 9.37755 147.737 10.1617C147.741 10.5128 147.741 10.8899 147.741 11.2653C147.751 11.7302 147.751 12.1727 147.751 12.6188V38.566C147.751 39.0164 147.751 39.4559 147.741 39.899C147.741 40.3022 147.741 40.6716 147.736 41.0517C147.722 41.8218 147.651 42.5898 147.524 43.3496C147.408 44.07 147.183 44.7683 146.855 45.4201C146.528 46.0554 146.103 46.6352 145.595 47.1381C145.089 47.6511 144.503 48.0791 143.861 48.4057C143.209 48.7355 142.512 48.9653 141.793 49.0874C141.026 49.2126 140.252 49.2801 139.475 49.2896C139.112 49.298 138.732 49.3029 138.363 49.3029L137.019 49.3053L10.9444 49.3029Z" fill="black"/>
<path d="M31.183 25.9651C31.1963 24.9303 31.4712 23.9157 31.982 23.0157C32.4928 22.1156 33.223 21.3594 34.1046 20.8174C33.5446 20.0176 32.8057 19.3593 31.9467 18.8949C31.0878 18.4306 30.1324 18.1729 29.1564 18.1424C27.0745 17.9238 25.0562 19.3881 23.9953 19.3881C22.9139 19.3881 21.2804 18.164 19.5215 18.2002C18.3838 18.237 17.275 18.5678 16.3031 19.1605C15.3313 19.7532 14.5295 20.5875 13.976 21.5822C11.5783 25.7336 13.3668 31.8346 15.6636 35.1903C16.8128 36.8334 18.1558 38.6689 19.9132 38.6038C21.6328 38.5325 22.2751 37.5072 24.3509 37.5072C26.4074 37.5072 27.01 38.6038 28.803 38.5624C30.6482 38.5324 31.8109 36.9119 32.9197 35.2532C33.7454 34.0824 34.3807 32.7884 34.8022 31.4192C33.7302 30.9657 32.8153 30.2068 32.1717 29.2369C31.5281 28.267 31.1842 27.1291 31.183 25.9651Z" fill="white"/>
<path d="M27.7963 15.9351C28.8024 14.7272 29.2981 13.1748 29.1781 11.6074C27.6409 11.7689 26.2211 12.5035 25.2013 13.665C24.7028 14.2324 24.3209 14.8925 24.0776 15.6076C23.8343 16.3227 23.7343 17.0787 23.7834 17.8324C24.5522 17.8403 25.3128 17.6737 26.0079 17.345C26.703 17.0164 27.3145 16.5343 27.7963 15.9351Z" fill="white"/>
<path d="M52.9208 34.4434H47.0524L45.6431 38.6047H43.1575L48.716 23.209H51.2984L56.8569 38.6047H54.3289L52.9208 34.4434ZM47.6602 32.5232H52.3119L50.0187 25.7697H49.9546L47.6602 32.5232Z" fill="white"/>
<path d="M68.8615 32.9922C68.8615 36.4804 66.9945 38.7214 64.1771 38.7214C63.4634 38.7588 62.7537 38.5944 62.1291 38.2471C61.5045 37.8997 60.9903 37.3836 60.6454 36.7576H60.5921V42.3173H58.2881V27.3793H60.5183V29.2462H60.5607C60.9214 28.6233 61.4442 28.1098 62.0736 27.7603C62.703 27.4109 63.4153 27.2386 64.1348 27.2618C66.9836 27.2618 68.8615 29.5138 68.8615 32.9922ZM66.4933 32.9922C66.4933 30.7197 65.3188 29.2257 63.527 29.2257C61.7666 29.2257 60.5825 30.7512 60.5825 32.9922C60.5825 35.2539 61.7666 36.7685 63.527 36.7685C65.3189 36.7685 66.4933 35.2854 66.4933 32.9922Z" fill="white"/>
<path d="M81.2157 32.9922C81.2157 36.4804 79.3488 38.7214 76.5314 38.7214C75.8177 38.7588 75.1079 38.5944 74.4833 38.247C73.8587 37.8997 73.3445 37.3835 72.9997 36.7576H72.9464V42.3173H70.6423V27.3793H72.8725V29.2462H72.9149C73.2756 28.6233 73.7985 28.1098 74.4278 27.7603C75.0572 27.4109 75.7695 27.2386 76.489 27.2618C79.3379 27.2618 81.2157 29.5138 81.2157 32.9922ZM78.8475 32.9922C78.8475 30.7197 77.6731 29.2256 75.8812 29.2256C74.1208 29.2256 72.9367 30.7512 72.9367 32.9922C72.9367 35.2539 74.1208 36.7685 75.8812 36.7685C77.6731 36.7685 78.8475 35.2854 78.8475 32.9922H78.8475Z" fill="white"/>
<path d="M89.381 34.3149C89.5517 35.8417 91.0349 36.8441 93.0616 36.8441C95.0037 36.8441 96.4008 35.8416 96.4008 34.465C96.4008 33.27 95.5582 32.5545 93.5629 32.0641L91.5676 31.5835C88.7405 30.9006 87.4281 29.5785 87.4281 27.4331C87.4281 24.7767 89.743 22.9521 93.0302 22.9521C96.2834 22.9521 98.5136 24.7767 98.5886 27.4331H96.2628C96.1236 25.8967 94.8535 24.9692 92.9974 24.9692C91.1414 24.9692 89.8713 25.9076 89.8713 27.2733C89.8713 28.3617 90.6825 29.0022 92.6669 29.4925L94.3631 29.909C97.5219 30.656 98.8344 31.9249 98.8344 34.1768C98.8344 37.0571 96.54 38.8611 92.8909 38.8611C89.4766 38.8611 87.1714 37.0995 87.0225 34.3148L89.381 34.3149Z" fill="white"/>
<path d="M103.807 24.7236V27.38H105.941V29.2046H103.807V35.3926C103.807 36.3539 104.234 36.8019 105.173 36.8019C105.426 36.7975 105.679 36.7797 105.93 36.7486V38.5623C105.509 38.6411 105.08 38.6768 104.651 38.6688C102.378 38.6688 101.492 37.8153 101.492 35.6384V29.2046H99.8599V27.38H101.492V24.7236H103.807Z" fill="white"/>
<path d="M107.177 32.9932C107.177 29.4615 109.258 27.2422 112.501 27.2422C115.756 27.2422 117.826 29.4614 117.826 32.9932C117.826 36.5346 115.766 38.7441 112.501 38.7441C109.237 38.7441 107.177 36.5346 107.177 32.9932ZM115.478 32.9932C115.478 30.5705 114.368 29.1406 112.501 29.1406C110.634 29.1406 109.525 30.5814 109.525 32.9932C109.525 35.4255 110.634 36.8445 112.501 36.8445C114.368 36.8445 115.478 35.4255 115.478 32.9932H115.478Z" fill="white"/>
<path d="M119.726 27.3792H121.923V29.2897H121.976C122.125 28.693 122.475 28.1657 122.966 27.7964C123.458 27.427 124.062 27.2383 124.676 27.2617C124.942 27.2608 125.207 27.2896 125.466 27.3477V29.5028C125.131 29.4004 124.781 29.3533 124.43 29.3636C124.096 29.35 123.762 29.409 123.452 29.5366C123.143 29.6641 122.864 29.8572 122.636 30.1025C122.408 30.3479 122.236 30.6397 122.131 30.9579C122.026 31.2761 121.992 31.6132 122.03 31.946V38.6039H119.726L119.726 27.3792Z" fill="white"/>
<path d="M136.088 35.3081C135.779 37.3457 133.794 38.7441 131.255 38.7441C127.99 38.7441 125.963 36.5563 125.963 33.0464C125.963 29.5256 128.001 27.2422 131.158 27.2422C134.264 27.2422 136.217 29.3755 136.217 32.7789V33.5683H128.289V33.7075C128.252 34.1206 128.304 34.5368 128.441 34.9283C128.577 35.3199 128.796 35.6779 129.081 35.9786C129.367 36.2794 129.713 36.5159 130.097 36.6724C130.481 36.829 130.894 36.9021 131.309 36.8869C131.853 36.9379 132.399 36.8118 132.866 36.5273C133.333 36.2429 133.696 35.8153 133.901 35.3081L136.088 35.3081ZM128.3 31.958H133.912C133.932 31.5866 133.876 31.2149 133.746 30.8662C133.616 30.5176 133.416 30.1995 133.157 29.932C132.899 29.6645 132.588 29.4533 132.244 29.3117C131.9 29.1701 131.53 29.1011 131.158 29.1091C130.783 29.1069 130.411 29.179 130.064 29.3212C129.717 29.4635 129.401 29.6731 129.136 29.938C128.87 30.2028 128.659 30.5177 128.516 30.8644C128.372 31.2111 128.299 31.5828 128.3 31.958V31.958Z" fill="white"/>
<path d="M47.3711 11.6207C47.8541 11.586 48.3388 11.659 48.7902 11.8344C49.2417 12.0097 49.6485 12.2831 49.9815 12.6347C50.3145 12.9863 50.5653 13.4075 50.7158 13.8678C50.8663 14.3281 50.9128 14.816 50.8519 15.2965C50.8519 17.6598 49.5746 19.0183 47.3711 19.0183H44.699V11.6207H47.3711ZM45.848 17.9721H47.2427C47.5879 17.9928 47.9333 17.9362 48.2538 17.8065C48.5744 17.6768 48.862 17.4772 49.0956 17.2224C49.3293 16.9675 49.5033 16.6638 49.6047 16.3332C49.7062 16.0027 49.7327 15.6536 49.6823 15.3116C49.7291 14.9708 49.6999 14.624 49.5968 14.2958C49.4938 13.9677 49.3194 13.6664 49.0863 13.4136C48.8531 13.1608 48.5669 12.9626 48.2482 12.8334C47.9295 12.7042 47.5861 12.647 47.2427 12.6661H45.848V17.9721Z" fill="white"/>
<path d="M52.1499 16.2247C52.1148 15.8579 52.1568 15.4877 52.2731 15.138C52.3895 14.7883 52.5776 14.4668 52.8255 14.194C53.0734 13.9213 53.3755 13.7034 53.7126 13.5543C54.0496 13.4052 54.4141 13.3281 54.7826 13.3281C55.1512 13.3281 55.5157 13.4052 55.8527 13.5543C56.1898 13.7034 56.4919 13.9213 56.7398 14.194C56.9877 14.4668 57.1758 14.7883 57.2922 15.138C57.4085 15.4877 57.4505 15.8579 57.4154 16.2247C57.4511 16.592 57.4097 16.9627 57.2936 17.3129C57.1776 17.6632 56.9896 17.9853 56.7416 18.2586C56.4937 18.5319 56.1913 18.7502 55.8539 18.8997C55.5165 19.0491 55.1516 19.1263 54.7826 19.1263C54.4137 19.1263 54.0487 19.0491 53.7114 18.8997C53.374 18.7502 53.0716 18.5319 52.8237 18.2586C52.5757 17.9853 52.3877 17.6632 52.2716 17.3129C52.1556 16.9627 52.1141 16.592 52.1499 16.2247ZM56.2821 16.2247C56.2821 15.0146 55.7385 14.307 54.7845 14.307C53.8268 14.307 53.288 15.0146 53.288 16.2248C53.288 17.4446 53.8268 18.1468 54.7845 18.1468C55.7385 18.1468 56.2821 17.4397 56.2821 16.2247H56.2821Z" fill="white"/>
<path d="M64.4147 19.0182H63.2718L62.118 14.9066H62.0308L60.8818 19.0182H59.7498L58.2109 13.4355H59.3284L60.3285 17.6955H60.4108L61.5586 13.4355H62.6156L63.7634 17.6955H63.8505L64.8458 13.4355H65.9475L64.4147 19.0182Z" fill="white"/>
<path d="M67.2417 13.4355H68.3023V14.3224H68.3846C68.5243 14.0039 68.7599 13.7368 69.0585 13.5585C69.3571 13.3803 69.7039 13.2996 70.0506 13.3278C70.3222 13.3073 70.595 13.3483 70.8487 13.4476C71.1023 13.5469 71.3304 13.702 71.516 13.9014C71.7015 14.1008 71.8399 14.3394 71.9207 14.5996C72.0015 14.8597 72.0228 15.1347 71.9829 15.4042V19.0182H70.8812V15.6808C70.8812 14.7837 70.4913 14.3375 69.6765 14.3375C69.4921 14.3289 69.308 14.3603 69.1368 14.4295C68.9656 14.4988 68.8115 14.6042 68.6848 14.7385C68.5582 14.8729 68.4622 15.0331 68.4032 15.208C68.3443 15.383 68.3239 15.5687 68.3435 15.7523V19.0182H67.2417L67.2417 13.4355Z" fill="white"/>
<path d="M73.7385 11.2568H74.8403V19.0188H73.7385V11.2568Z" fill="white"/>
<path d="M76.3718 16.2248C76.3367 15.8579 76.3787 15.4878 76.4951 15.138C76.6115 14.7883 76.7996 14.4668 77.0476 14.194C77.2955 13.9213 77.5976 13.7034 77.9347 13.5543C78.2718 13.4052 78.6363 13.3281 79.0048 13.3281C79.3734 13.3281 79.7379 13.4052 80.075 13.5543C80.412 13.7034 80.7142 13.9213 80.9621 14.194C81.21 14.4668 81.3982 14.7883 81.5146 15.138C81.631 15.4878 81.673 15.8579 81.6379 16.2248C81.6736 16.5921 81.6321 16.9628 81.516 17.3131C81.4 17.6633 81.2119 17.9854 80.9639 18.2587C80.7159 18.532 80.4135 18.7503 80.0761 18.8998C79.7388 19.0492 79.3738 19.1264 79.0048 19.1264C78.6358 19.1264 78.2709 19.0492 77.9335 18.8998C77.5961 18.7503 77.2937 18.532 77.0458 18.2587C76.7978 17.9854 76.6097 17.6633 76.4937 17.3131C76.3776 16.9628 76.3361 16.5921 76.3718 16.2248ZM80.504 16.2248C80.504 15.0147 79.9604 14.3071 79.0064 14.3071C78.0487 14.3071 77.5099 15.0147 77.5099 16.2249C77.5099 17.4447 78.0487 18.1469 79.0064 18.1469C79.9604 18.1469 80.504 17.4398 80.504 16.2248H80.504Z" fill="white"/>
<path d="M82.7979 17.4398C82.7979 16.4349 83.5461 15.8555 84.8742 15.7732L86.3865 15.686V15.2042C86.3865 14.6145 85.9966 14.2816 85.2435 14.2816C84.6285 14.2816 84.2023 14.5074 84.08 14.9021H83.0134C83.126 13.9432 84.028 13.3281 85.2944 13.3281C86.694 13.3281 87.4834 14.0249 87.4834 15.2042V19.0186H86.4228V18.234H86.3356C86.1587 18.5154 85.9102 18.7449 85.6156 18.8989C85.321 19.0529 84.9908 19.1259 84.6587 19.1105C84.4244 19.1349 84.1875 19.1099 83.9634 19.0371C83.7393 18.9644 83.5329 18.8454 83.3576 18.688C83.1823 18.5306 83.0419 18.3382 82.9455 18.1232C82.8491 17.9082 82.7988 17.6754 82.7979 17.4398ZM86.3865 16.9627V16.496L85.0232 16.5832C84.2544 16.6346 83.9057 16.8961 83.9057 17.3883C83.9057 17.8908 84.3415 18.1831 84.9409 18.1831C85.1165 18.2009 85.2939 18.1832 85.4625 18.131C85.6311 18.0788 85.7875 17.9933 85.9224 17.8794C86.0573 17.7655 86.1679 17.6257 86.2476 17.4682C86.3273 17.3107 86.3745 17.1388 86.3865 16.9627Z" fill="white"/>
<path d="M88.9314 16.2251C88.9314 14.4611 89.8382 13.3436 91.2487 13.3436C91.5976 13.3275 91.9439 13.411 92.2471 13.5845C92.5502 13.7579 92.7978 14.0141 92.9607 14.323H93.0431V11.2568H94.1448V19.0188H93.0891V18.1368H93.0019C92.8263 18.4437 92.5702 18.6966 92.2611 18.8683C91.9521 19.04 91.602 19.1239 91.2487 19.1108C89.8286 19.1109 88.9314 17.9934 88.9314 16.2251ZM90.0695 16.2251C90.0695 17.4092 90.6277 18.1217 91.5612 18.1217C92.4898 18.1217 93.0637 17.3989 93.0637 16.2299C93.0637 15.0664 92.4837 14.3333 91.5612 14.3333C90.6337 14.3333 90.0695 15.0507 90.0695 16.2251H90.0695Z" fill="white"/>
<path d="M98.7034 16.2247C98.6683 15.8579 98.7102 15.4877 98.8266 15.138C98.9429 14.7883 99.1311 14.4668 99.379 14.194C99.6268 13.9213 99.929 13.7034 100.266 13.5543C100.603 13.4052 100.968 13.3281 101.336 13.3281C101.705 13.3281 102.069 13.4052 102.406 13.5543C102.743 13.7034 103.045 13.9213 103.293 14.194C103.541 14.4668 103.729 14.7883 103.846 15.138C103.962 15.4877 104.004 15.8579 103.969 16.2247C104.005 16.592 103.963 16.9627 103.847 17.3129C103.731 17.6632 103.543 17.9853 103.295 18.2586C103.047 18.5319 102.745 18.7502 102.407 18.8997C102.07 19.0491 101.705 19.1263 101.336 19.1263C100.967 19.1263 100.602 19.0491 100.265 18.8997C99.9275 18.7502 99.6251 18.5319 99.3771 18.2586C99.1292 17.9853 98.9411 17.6632 98.8251 17.3129C98.7091 16.9627 98.6676 16.592 98.7034 16.2247ZM102.836 16.2247C102.836 15.0146 102.292 14.307 101.338 14.307C100.38 14.307 99.8415 15.0146 99.8415 16.2248C99.8415 17.4446 100.38 18.1468 101.338 18.1468C102.292 18.1468 102.836 17.4397 102.836 16.2247Z" fill="white"/>
<path d="M105.447 13.4355H106.508V14.3224H106.59C106.73 14.0039 106.965 13.7368 107.264 13.5585C107.562 13.3803 107.909 13.2996 108.256 13.3278C108.528 13.3073 108.8 13.3483 109.054 13.4476C109.308 13.5469 109.536 13.702 109.721 13.9014C109.907 14.1008 110.045 14.3394 110.126 14.5996C110.207 14.8597 110.228 15.1347 110.188 15.4042V19.0182H109.086V15.6808C109.086 14.7837 108.697 14.3375 107.882 14.3375C107.697 14.3289 107.513 14.3603 107.342 14.4295C107.171 14.4988 107.017 14.6042 106.89 14.7385C106.764 14.8729 106.667 15.0331 106.609 15.208C106.55 15.383 106.529 15.5687 106.549 15.7523V19.0182H105.447V13.4355Z" fill="white"/>
<path d="M116.414 12.0459V13.4612H117.623V14.3893H116.414V17.2599C116.414 17.8447 116.655 18.1008 117.203 18.1008C117.344 18.1003 117.484 18.0918 117.623 18.0753V18.9931C117.425 19.0285 117.225 19.0473 117.024 19.0494C115.799 19.0494 115.311 18.6184 115.311 17.542V14.3892H114.425V13.4612H115.311V12.0459H116.414Z" fill="white"/>
<path d="M119.128 11.2568H120.22V14.3333H120.307C120.454 14.0118 120.696 13.7433 121.001 13.5643C121.305 13.3854 121.658 13.3047 122.01 13.3332C122.28 13.3185 122.55 13.3637 122.801 13.4654C123.052 13.5671 123.277 13.7229 123.46 13.9217C123.644 14.1205 123.782 14.3573 123.863 14.6154C123.945 14.8734 123.968 15.1463 123.932 15.4145V19.0189H122.829V15.6863C122.829 14.7946 122.414 14.343 121.636 14.343C121.446 14.3275 121.256 14.3535 121.078 14.4193C120.899 14.485 120.738 14.589 120.604 14.7238C120.47 14.8586 120.367 15.021 120.302 15.1997C120.238 15.3784 120.213 15.5691 120.23 15.7583V19.0188H119.128L119.128 11.2568Z" fill="white"/>
<path d="M130.356 17.5113C130.207 18.0215 129.882 18.4629 129.44 18.7581C128.998 19.0534 128.466 19.1837 127.937 19.1264C127.57 19.1361 127.204 19.0657 126.866 18.92C126.528 18.7743 126.226 18.5568 125.981 18.2826C125.736 18.0084 125.553 17.6842 125.445 17.3323C125.338 16.9804 125.308 16.6093 125.359 16.2449C125.31 15.8793 125.34 15.5074 125.447 15.1545C125.554 14.8016 125.736 14.4758 125.98 14.1992C126.224 13.9227 126.525 13.7018 126.862 13.5515C127.198 13.4012 127.564 13.3251 127.933 13.3282C129.486 13.3282 130.423 14.3895 130.423 16.1425V16.527H126.481V16.5887C126.464 16.7936 126.489 16.9998 126.556 17.1942C126.624 17.3885 126.731 17.5667 126.871 17.7172C127.011 17.8678 127.18 17.9875 127.369 18.0686C127.558 18.1496 127.762 18.1903 127.968 18.1881C128.231 18.2197 128.498 18.1722 128.735 18.0517C128.971 17.9312 129.167 17.7431 129.296 17.5113L130.356 17.5113ZM126.481 15.7121H129.301C129.315 15.5248 129.289 15.3366 129.226 15.1596C129.163 14.9827 129.063 14.8209 128.934 14.6847C128.804 14.5485 128.648 14.4409 128.474 14.3688C128.301 14.2967 128.114 14.2616 127.926 14.2659C127.736 14.2635 127.547 14.2993 127.37 14.3712C127.194 14.443 127.033 14.5494 126.899 14.6842C126.764 14.819 126.658 14.9794 126.586 15.1559C126.514 15.3325 126.478 15.5216 126.481 15.7121H126.481Z" fill="white"/>
</g>
<defs>
<clipPath id="clip0_268_1414">
<rect width="148.358" height="49.5916" fill="white" transform="translate(0.474609 0.795898)"/>
</clipPath>
</defs>
</svg>
