<svg width="340" height="51" viewBox="0 0 340 51" fill="none" xmlns="http://www.w3.org/2000/svg">
<g clip-path="url(#clip0_7281_515)">
<path fill-rule="evenodd" clip-rule="evenodd" d="M59.2163 32.0786V27.8137L56.8388 25.485L59.2303 26.8378V19.7281L50.3323 29.7163L47.6113 32.9222L51.3615 30.5116L46.9352 35.1512L46.2931 37.5H44.3848H40.4802H33.5049L40.4802 36.0327V33.4956V27.0777V10.9943L33.7795 21.2348H36.0542L32.6121 29.3674L29.3541 30.9939L32.1196 32.3199L31.2612 33.8138L28.935 37.5H25.2665H24.4466H14.3859L24.4466 36.753V32.7797L24.5119 25.7531L21.4236 26.205L24.5886 24.4879L24.6814 19.7594L17.9196 26.7773L18.288 28.4643L14.1075 31.778L16.0133 31.235L9.76091 37.5H6.27066H5.51648H0L6.36248 35.6088L9.55835 28.4632L13.1242 29.1868L25.2962 15.5721L30.4598 25.2102L32.3042 17.018L39.5581 7.5H42.3856L45.4529 15.7528L49.3375 18.2306L50.8526 25.4356L59.2303 16.8978L62.1637 19.6666L68.4511 33.0421L73 37.5H61.1676H59.7997H59.2303H50.287L59.2303 36.5353V35.5559L56.1492 33.8138L59.2163 32.0786Z" fill="white"/>
</g>
<path d="M120.402 13.302L113.534 37H110.066L104.558 17.926L98.846 37L95.412 37.034L88.782 13.302H92.08L97.248 33.396L102.96 13.302H106.428L111.868 33.328L117.07 13.302H120.402ZM131.914 37.306C130.169 37.306 128.582 36.9093 127.154 36.116C125.749 35.3227 124.638 34.2007 123.822 32.75C123.029 31.2767 122.632 29.5767 122.632 27.65C122.632 25.746 123.04 24.0687 123.856 22.618C124.695 21.1447 125.828 20.0227 127.256 19.252C128.684 18.4587 130.282 18.062 132.05 18.062C133.818 18.062 135.416 18.4587 136.844 19.252C138.272 20.0227 139.394 21.1333 140.21 22.584C141.049 24.0347 141.468 25.7233 141.468 27.65C141.468 29.5767 141.037 31.2767 140.176 32.75C139.337 34.2007 138.193 35.3227 136.742 36.116C135.291 36.9093 133.682 37.306 131.914 37.306ZM131.914 34.586C133.025 34.586 134.067 34.3253 135.042 33.804C136.017 33.2827 136.799 32.5007 137.388 31.458C138 30.4153 138.306 29.146 138.306 27.65C138.306 26.154 138.011 24.8847 137.422 23.842C136.833 22.7993 136.062 22.0287 135.11 21.53C134.158 21.0087 133.127 20.748 132.016 20.748C130.883 20.748 129.84 21.0087 128.888 21.53C127.959 22.0287 127.211 22.7993 126.644 23.842C126.077 24.8847 125.794 26.154 125.794 27.65C125.794 29.1687 126.066 30.4493 126.61 31.492C127.177 32.5347 127.925 33.3167 128.854 33.838C129.783 34.3367 130.803 34.586 131.914 34.586ZM154.614 18.028C156.881 18.028 158.717 18.7193 160.122 20.102C161.527 21.462 162.23 23.434 162.23 26.018V37H159.17V26.46C159.17 24.6013 158.705 23.1847 157.776 22.21C156.847 21.2127 155.577 20.714 153.968 20.714C152.336 20.714 151.033 21.224 150.058 22.244C149.106 23.264 148.63 24.7487 148.63 26.698V37H145.536V18.368H148.63V21.02C149.242 20.068 150.069 19.3313 151.112 18.81C152.177 18.2887 153.345 18.028 154.614 18.028ZM166.128 27.616C166.128 25.712 166.513 24.046 167.284 22.618C168.055 21.1673 169.109 20.0453 170.446 19.252C171.806 18.4587 173.325 18.062 175.002 18.062C176.453 18.062 177.801 18.402 179.048 19.082C180.295 19.7393 181.247 20.612 181.904 21.7V11.84H185.032V37H181.904V33.498C181.292 34.6087 180.385 35.5267 179.184 36.252C177.983 36.9547 176.577 37.306 174.968 37.306C173.313 37.306 171.806 36.898 170.446 36.082C169.109 35.266 168.055 34.1213 167.284 32.648C166.513 31.1747 166.128 29.4973 166.128 27.616ZM181.904 27.65C181.904 26.2447 181.621 25.0207 181.054 23.978C180.487 22.9353 179.717 22.142 178.742 21.598C177.79 21.0313 176.736 20.748 175.58 20.748C174.424 20.748 173.37 21.02 172.418 21.564C171.466 22.108 170.707 22.9013 170.14 23.944C169.573 24.9867 169.29 26.2107 169.29 27.616C169.29 29.044 169.573 30.2907 170.14 31.356C170.707 32.3987 171.466 33.2033 172.418 33.77C173.37 34.314 174.424 34.586 175.58 34.586C176.736 34.586 177.79 34.314 178.742 33.77C179.717 33.2033 180.487 32.3987 181.054 31.356C181.621 30.2907 181.904 29.0553 181.904 27.65ZM207.261 26.97C207.261 27.5593 207.227 28.1827 207.159 28.84H192.267C192.38 30.676 193.003 32.1153 194.137 33.158C195.293 34.178 196.687 34.688 198.319 34.688C199.656 34.688 200.767 34.382 201.651 33.77C202.557 33.1353 203.192 32.2967 203.555 31.254H206.887C206.388 33.0447 205.391 34.5067 203.895 35.64C202.399 36.7507 200.54 37.306 198.319 37.306C196.551 37.306 194.964 36.9093 193.559 36.116C192.176 35.3227 191.088 34.2007 190.295 32.75C189.501 31.2767 189.105 29.5767 189.105 27.65C189.105 25.7233 189.49 24.0347 190.261 22.584C191.031 21.1333 192.108 20.0227 193.491 19.252C194.896 18.4587 196.505 18.062 198.319 18.062C200.087 18.062 201.651 18.4473 203.011 19.218C204.371 19.9887 205.413 21.054 206.139 22.414C206.887 23.7513 207.261 25.27 207.261 26.97ZM204.065 26.324C204.065 25.1453 203.804 24.1367 203.283 23.298C202.761 22.4367 202.047 21.7907 201.141 21.36C200.257 20.9067 199.271 20.68 198.183 20.68C196.619 20.68 195.281 21.1787 194.171 22.176C193.083 23.1733 192.459 24.556 192.301 26.324H204.065ZM214.439 21.394C214.983 20.3287 215.753 19.5013 216.751 18.912C217.771 18.3227 219.006 18.028 220.457 18.028V21.224H219.641C216.173 21.224 214.439 23.1053 214.439 26.868V37H211.345V18.368H214.439V21.394ZM230.624 37.306C229.196 37.306 227.915 37.068 226.782 36.592C225.649 36.0933 224.753 35.4133 224.096 34.552C223.439 33.668 223.076 32.6593 223.008 31.526H226.204C226.295 32.4553 226.725 33.2147 227.496 33.804C228.289 34.3933 229.321 34.688 230.59 34.688C231.769 34.688 232.698 34.4273 233.378 33.906C234.058 33.3847 234.398 32.7273 234.398 31.934C234.398 31.118 234.035 30.5173 233.31 30.132C232.585 29.724 231.463 29.3273 229.944 28.942C228.561 28.5793 227.428 28.2167 226.544 27.854C225.683 27.4687 224.935 26.9133 224.3 26.188C223.688 25.44 223.382 24.4653 223.382 23.264C223.382 22.312 223.665 21.4393 224.232 20.646C224.799 19.8527 225.603 19.2293 226.646 18.776C227.689 18.3 228.879 18.062 230.216 18.062C232.279 18.062 233.945 18.5833 235.214 19.626C236.483 20.6687 237.163 22.0967 237.254 23.91H234.16C234.092 22.9353 233.695 22.1533 232.97 21.564C232.267 20.9747 231.315 20.68 230.114 20.68C229.003 20.68 228.119 20.918 227.462 21.394C226.805 21.87 226.476 22.4933 226.476 23.264C226.476 23.876 226.669 24.386 227.054 24.794C227.462 25.1793 227.961 25.4967 228.55 25.746C229.162 25.9727 230.001 26.2333 231.066 26.528C232.403 26.8907 233.491 27.2533 234.33 27.616C235.169 27.956 235.883 28.4773 236.472 29.18C237.084 29.8827 237.401 30.8007 237.424 31.934C237.424 32.954 237.141 33.872 236.574 34.688C236.007 35.504 235.203 36.15 234.16 36.626C233.14 37.0793 231.961 37.306 230.624 37.306Z" fill="white"/>
<defs>
<clipPath id="clip0_7281_515">
<rect width="73" height="34" fill="white" transform="matrix(-1 0 0 1 73 7.5)"/>
</clipPath>
</defs>
</svg>
